<?xml version="1.0" encoding="utf-8"?>
<!-- Generator: Adobe Illustrator 22.1.0, SVG Export Plug-In . SVG Version: 6.00 Build 0)  -->
<svg version="1.1" id="Layer_1" xmlns="http://www.w3.org/2000/svg" xmlns:xlink="http://www.w3.org/1999/xlink" x="0px" y="0px"
	 viewBox="0 0 200 100" style="enable-background:new 0 0 200 100;" xml:space="preserve">
<style type="text/css">
	.st0{fill:#7FD1F4;}
	.st1{fill:#292967;}
	.st2{fill:#224290;}
	.st3{fill:#263570;}
	.st4{fill:#271F52;}
	.st5{fill:#404041;}
</style>
<title>logo</title>
<g>
	<polygon class="st0" points="31.3,63.4 24.8,74.5 31.3,85.6 37.7,74.5 	"/>
	<g>
		<polygon class="st1" points="44.1,63.4 37.7,74.5 31.3,85.6 44.1,85.6 50.5,74.5 		"/>
		<polygon class="st1" points="18.4,63.4 12,74.5 18.4,85.6 31.3,85.6 24.8,74.5 		"/>
	</g>
	<polygon class="st2" points="37.7,52.3 31.3,41.2 24.8,52.3 18.4,63.4 24.8,74.5 31.3,63.4 37.7,74.5 44.1,63.4 	"/>
	<polygon class="st3" points="44.1,41.2 37.7,30.1 31.3,19 24.8,30.1 18.4,41.2 12,52.3 18.4,63.4 24.8,52.3 31.3,41.2 37.7,52.3 
		44.1,63.4 50.5,52.3 	"/>
	<g>
		<polygon class="st4" points="5.6,63.4 12,74.5 18.4,63.4 12,52.3 		"/>
		<polygon class="st4" points="50.5,52.3 44.1,63.4 50.5,74.5 56.9,63.4 		"/>
	</g>
</g>
<g>
	<path class="st5" d="M82.2,75.6c-1.5-1-3.1-1.4-5.2-1.4c-2.9,0-3.6,0.8-3.6,1.7c0,1,0.8,1.2,2,1.4l4,0.5c2.7,0.3,4.3,1.5,4.3,3.8
		c0,2.8-2.7,4.1-6.6,4.1c-2.6,0-4.6-0.5-6.6-2l1.1-1.9c1.8,1.2,3.5,1.7,5.8,1.7c2.3,0,3.9-0.7,3.9-2c0-1-0.6-1.5-2-1.6l-4.3-0.5
		c-2.6-0.3-4.1-1.3-4.1-3.6c0-2.6,2.7-3.9,6-3.9c2.3,0,4.3,0.4,6.3,1.8L82.2,75.6z"/>
	<path class="st5" d="M93,85.6c-4,0-7.2-2.7-7.2-6.8S88.9,72,93,72c4,0,7.2,2.7,7.2,6.8S97,85.6,93,85.6z M93,83.5
		c2.7,0,4.9-1.8,4.9-4.7c0-3-2.1-4.7-4.9-4.7c-2.7,0-4.8,1.8-4.8,4.7C88.1,81.8,90.2,83.5,93,83.5z"/>
	<path class="st5" d="M104.8,72.3v10.8h9.3v2.2h-11.7v-13H104.8z"/>
	<path class="st5" d="M118.1,72.3V79c0,2.8,1.3,4.5,4.2,4.5c2.9,0,4.2-1.8,4.2-4.5v-6.6h2.4v6.6c0,4.3-2.6,6.7-6.6,6.7
		c-4,0-6.6-2.4-6.6-6.7v-6.6H118.1z"/>
	<path class="st5" d="M144.1,72.3v2.2h-5.5v10.8h-2.4V74.5h-5.5v-2.2H144.1z"/>
	<path class="st5" d="M148.4,72.3v13H146v-13H148.4z"/>
	<path class="st5" d="M157.9,85.6c-4,0-7.2-2.7-7.2-6.8s3.2-6.8,7.2-6.8s7.2,2.7,7.2,6.8S161.9,85.6,157.9,85.6z M157.9,83.5
		c2.7,0,4.9-1.8,4.9-4.7c0-3-2.1-4.7-4.9-4.7c-2.7,0-4.8,1.8-4.8,4.7C153,81.8,155.2,83.5,157.9,83.5z"/>
	<path class="st5" d="M169.7,72.3l8.6,9.6v-9.6h2.4v13h-2.4l-8.6-9.7v9.7h-2.3v-13H169.7z"/>
	<path class="st5" d="M194.4,75.6c-1.5-1-3.1-1.4-5.2-1.4c-2.9,0-3.6,0.8-3.6,1.7c0,1,0.8,1.2,2,1.4l4,0.5c2.7,0.3,4.3,1.5,4.3,3.8
		c0,2.8-2.7,4.1-6.6,4.1c-2.6,0-4.6-0.5-6.6-2l1.1-1.9c1.8,1.2,3.5,1.7,5.8,1.7c2.3,0,3.9-0.7,3.9-2c0-1-0.6-1.5-2-1.6l-4.3-0.5
		c-2.6-0.3-4.1-1.3-4.1-3.6c0-2.6,2.7-3.9,6-3.9c2.3,0,4.3,0.4,6.3,1.8L194.4,75.6z"/>
</g>
<g>
	<path class="st5" d="M87.8,46.9l8.8,20.6h-4.9l-1.3-3.1H77.6l-1.3,3.1h-5l9-20.6H87.8z M79.3,60.3h9.2L84.7,51h-1.6L79.3,60.3z"/>
	<path class="st5" d="M161.4,54c-1.6-2.2-3.6-3.5-6.9-3.5c-4.1,0-6.8,2.6-6.8,6.7c0,4,2.8,6.7,6.8,6.7c3.3,0,5.3-1.2,6.9-3.5
		l3.6,2.1c-2.1,3.6-5.6,5.5-10.4,5.5c-6.6,0-11.5-4.1-11.5-10.8s5-10.8,11.5-10.8c4.8,0,8.3,1.9,10.4,5.5L161.4,54z"/>
	<path class="st5" d="M110.9,46.9H98.8v4.2h4.7l0,0h7.3c2.4,0,4,1.5,4,3.8s-1.6,3.7-4,3.7h-7.3l0,0h-4.7v8.8h4.7v-4.6h7.5
		c4.8,0,8.5-3.1,8.5-7.9C119.4,50.1,115.8,46.9,110.9,46.9z"/>
	<rect x="121.9" y="63.5" class="st5" width="19.2" height="4"/>
	<g>
		<polygon class="st5" points="121.9,54.9 121.9,59.1 126.5,59.1 126.5,59.1 139.2,59.1 139.2,54.9 		"/>
		<polygon class="st5" points="121.9,46.9 121.9,50.7 126.5,50.7 126.5,50.7 140.6,50.7 140.6,46.9 		"/>
	</g>
</g>
</svg>
