<?xml version="1.0" encoding="UTF-8"?>
<svg id="Layer_1" data-name="Layer 1" xmlns="http://www.w3.org/2000/svg" xmlns:xlink="http://www.w3.org/1999/xlink" viewBox="0 0 116.56 28.04">
  <defs>
    <style>
      .cls-1 {
        fill: url(#GradientFill_4);
      }

      .cls-1, .cls-2, .cls-3, .cls-4, .cls-5, .cls-6, .cls-7 {
        fill-rule: evenodd;
      }

      .cls-2 {
        fill: url(#GradientFill_3-2);
      }

      .cls-3 {
        fill: #263a72;
      }

      .cls-4 {
        fill: #243c7b;
      }

      .cls-5 {
        fill: url(#GradientFill_3);
      }

      .cls-6 {
        fill: #f16b25;
      }

      .cls-7 {
        fill: url(#GradientFill_4-2);
      }
    </style>
    <linearGradient id="GradientFill_4" data-name="GradientFill 4" x1="84.69" y1="24.08" x2="88.94" y2="16.71" gradientUnits="userSpaceOnUse">
      <stop offset="0" stop-color="#fee6db"/>
      <stop offset=".37" stop-color="#f8b592"/>
      <stop offset=".8" stop-color="#f38044"/>
      <stop offset="1" stop-color="#f16b25"/>
    </linearGradient>
    <linearGradient id="GradientFill_3" data-name="GradientFill 3" x1="81.64" y1="16.13" x2="86.08" y2="8.45" gradientUnits="userSpaceOnUse">
      <stop offset="0" stop-color="#b7cbe9"/>
      <stop offset=".1" stop-color="#b7cbe9"/>
      <stop offset=".96" stop-color="#243c7b"/>
      <stop offset="1" stop-color="#243c7b"/>
    </linearGradient>
    <linearGradient id="GradientFill_4-2" data-name="GradientFill 4" x1="78.95" y1="9.44" x2="81.81" y2="4.48" xlink:href="#GradientFill_4"/>
    <linearGradient id="GradientFill_3-2" data-name="GradientFill 3" x1="74.56" y1="3.16" x2="83.08" y2="3.16" xlink:href="#GradientFill_3"/>
  </defs>
  <g>
    <path class="cls-4" d="M1.37,27.1l.28.81h-.34v.08h1.06v-.08h-.26l-.88-2.56h-.07l-.85,2.29c-.04.11-.15.26-.31.27v.08h.65v-.08c-.21-.01-.24-.08-.24-.19,0-.1.05-.2.07-.26l.14-.36h.75ZM1.01,26.02h0l.33,1h-.71l.38-1h0ZM4.29,27.16h-.04v.84h.09c.02-.1.08-.16.16-.16s.17.08.3.12c.12.05.29.07.44.07h0c.44,0,.7-.37.7-.79,0-.32-.12-.65-.57-.78l-.39-.11c-.18-.05-.47-.14-.47-.5,0-.27.2-.48.49-.48.26,0,.54.14.73.61h.05l-.02-.64h-.06c-.02.05-.05.1-.09.1-.23,0-.23-.14-.63-.14-.29,0-.48.17-.58.37-.05.1-.08.21-.08.32,0,.28.06.67.54.81l.45.13c.37.11.41.38.41.54,0,.33-.29.48-.54.48-.28,0-.66-.14-.91-.81h0ZM8.04,27.16h-.04v.84h.09c.02-.1.08-.16.16-.16s.17.08.3.12c.12.05.29.07.44.07h0c.44,0,.71-.37.71-.79,0-.32-.13-.65-.57-.78l-.39-.11c-.18-.05-.47-.14-.47-.5,0-.27.2-.48.49-.48.26,0,.54.14.73.61h.06l-.02-.64h-.06c-.02.05-.05.1-.09.1-.23,0-.23-.14-.63-.14-.29,0-.48.17-.58.37-.05.1-.08.21-.08.32,0,.28.06.67.54.81l.45.13c.37.11.41.38.41.54,0,.33-.29.48-.54.48-.28,0-.66-.14-.91-.81h0ZM12.99,25.31h0c-.65,0-1.21.6-1.21,1.36,0,.92.71,1.37,1.21,1.37s1.21-.44,1.21-1.37c0-.76-.56-1.36-1.21-1.36h0ZM12.27,26.67h0c0-1.04.4-1.29.72-1.29.21,0,.73.1.73,1.29,0,.32,0,1.04-.53,1.25-.06.03-.13.04-.2.04s-.13-.01-.19-.04c-.51-.2-.53-.85-.53-1.25h0ZM18.21,25.31h-.09c-.05.18-.18.13-.29.08-.13-.05-.21-.08-.37-.08-.26,0-.64.09-.91.55-.13.23-.21.48-.21.73,0,.19.01.41.06.61.12.43.48.85.99.85h0s.25-.01.44-.12c.08-.04.14-.09.2-.09.1,0,.12.12.12.16h.1l.03-.88h-.09c-.07.42-.2.67-.54.81-.06.02-.12.04-.18.04-.27,0-.66-.18-.66-.9v-.65c0-.86.41-1.03.67-1.03.45,0,.61.31.65.78h.08v-.86h0ZM20.56,25.43h0v2.49h-.3v.08h1.02v-.08h-.29v-2.49h.29v-.08h-1.02v.08h.3ZM24.54,27.1h0l.28.81h-.34v.08h1.05v-.08h-.26l-.87-2.56h-.07l-.85,2.29c-.04.11-.15.26-.32.27v.08h.65v-.08c-.21-.01-.24-.08-.24-.19,0-.1.05-.2.07-.26l.14-.36h.75ZM24.19,26.02h0l.33,1h-.7l.38-1h0ZM28.27,25.43h0v2.49h-.29v.08h1.02v-.08h-.3v-2.49c.22,0,.3.01.33.02.33.07.44.39.48.74h.11l-.02-.83h-2.22l-.02.83h.11c.06-.6.3-.76.81-.75h0ZM31.88,25.43h0v2.49h-.3v.08h1.94l.08-.82h-.09c-.11.69-.44.74-.66.74h-.55v-1.29h.16c.27,0,.33.12.39.49h.08v-1.06h-.08c-.04.46-.26.48-.41.48h-.14v-1.12h.48c.4,0,.58.27.63.69h.09l-.04-.76h-1.89v.08h.3ZM36.73,25.35h-1.12v.08h.3v2.49h-.3v.08h1.22c.67,0,1.01-.48,1.14-.84.05-.16.07-.32.07-.49,0-.21-.06-.43-.15-.62-.32-.67-.94-.69-1.17-.69h0ZM36.86,27.92h-.52v-2.49h.41c.49,0,.81.2.81,1.27,0,.63-.19,1-.36,1.12-.11.08-.26.09-.34.09h0ZM43.55,25.43h0v2.49h-.29v.08h1.02v-.08h-.3v-2.49c.22,0,.3.01.33.02.33.07.44.39.48.74h.11l-.02-.83h-2.22l-.02.83h.1c.06-.6.3-.76.81-.75h0ZM47.89,27.92h-.29v-1.27h.31c.11,0,.25,0,.34.09.13.12.15.41.18.7.01.15.03.34.11.45.1.13.23.15.34.15h.02c.11,0,.26-.01.39-.22l-.06-.07s-.13.14-.21.14c-.15,0-.15-.45-.17-.63-.02-.21-.04-.55-.69-.66h0c.58-.06.79-.35.79-.66,0-.08-.02-.16-.05-.23-.18-.37-.64-.36-1-.36h-1.04v.08h.3v2.49h-.3v.08h1.02v-.08h0ZM47.86,26.56h-.27v-1.13h.29c.39,0,.59.12.59.51,0,.54-.29.62-.61.62h0ZM52.42,27.1h0l.28.81h-.34v.08h1.05v-.08h-.26l-.87-2.56h-.07l-.85,2.29c-.04.11-.14.26-.32.27v.08h.65v-.08c-.21-.01-.25-.08-.25-.19,0-.1.04-.2.07-.26l.14-.36h.75ZM52.06,26.02h0l.33,1h-.71l.38-1h0ZM55.6,25.43h0v2.49h-.29v.08h1.02v-.08h-.3v-1.23h.27c.13,0,.37.02.39.49h.08v-1.06h-.08c-.04.46-.26.48-.41.48h-.25v-1.17h.48c.45,0,.63.3.66.77h.09l-.04-.85h-1.92v.08h.29ZM59.5,25.43h0v2.49h-.3v.08h1.02v-.08h-.3v-1.23h.27c.13,0,.37.02.39.49h.08v-1.06h-.08c-.04.46-.26.48-.41.48h-.25v-1.17h.48c.44,0,.63.3.66.77h.09l-.04-.85h-1.92v.08h.3ZM63.4,25.43h0v2.49h-.29v.08h1.02v-.08h-.3v-2.49h.3v-.08h-1.02v.08h.29ZM68.09,25.31h-.09c-.06.18-.18.13-.29.08-.12-.05-.21-.08-.37-.08-.26,0-.64.09-.91.55-.13.23-.22.48-.22.73,0,.19.01.41.06.61.12.43.48.85.99.85h0s.25-.01.44-.12c.08-.04.14-.09.2-.09.1,0,.12.12.12.16h.1l.03-.88h-.09c-.07.42-.2.67-.54.81-.06.02-.12.04-.18.04-.27,0-.66-.18-.66-.9v-.65c0-.86.41-1.03.67-1.03.45,0,.61.31.66.78h.08v-.86h0ZM73.98,27.1h0l.28.81h-.34v.08h1.05v-.08h-.26l-.87-2.56h-.07l-.85,2.29c-.04.11-.15.26-.32.27v.08h.65v-.08c-.21-.01-.25-.08-.25-.19,0-.1.05-.2.07-.26l.14-.36h.75ZM73.62,26.02h0l.33,1h-.7l.37-1h0ZM78.83,26.17h0v-.86h-.09c-.07.18-.17.13-.31.08-.14-.05-.24-.08-.41-.08-.62,0-1.12.64-1.12,1.31s.34,1.42,1.09,1.42c.54,0,1.02-.37,1.02-.9v-.16h.27v-.08h-.96v.08h.27v.29c0,.65-.35.7-.6.7-.11,0-.19-.05-.28-.12-.08-.06-.32-.29-.32-1.19,0-.53.05-1.06.45-1.22.07-.03.14-.05.21-.05.33,0,.49.17.54.24.1.13.15.37.17.54h.08Z"/>
    <path class="cls-3" d="M17.98,17.65c1.25,3.42,2.96,3.93,4.37,3.93,1.28,0,2.68-.58,2.68-2.27,0-.81-.15-2.48-2.02-3.03l-2.29-.67c-2.46-.73-2.75-2.52-2.75-3.96,0-.56.16-1.15.41-1.65.48-1,1.45-1.9,2.9-1.9,2.05,0,3.46,1.16,3.46,1.16v-.98h.57v3.34h-.36c-.99-2.42-2.31-2.91-3.61-2.91-1.45,0-2.41.83-2.41,2.22,0,1.88,1.41,2.55,2.33,2.82l1.97.56c2.25.65,2.89,2.13,2.89,3.79,0,2.21-1.32,4.11-3.56,4.11-1.27,0-2.33-.25-4.39-1.46v1.3h-.65v-4.43h.45ZM28.06,17.65h0c1.37,3.42,3.07,3.93,4.49,3.93,1.28,0,2.68-.58,2.68-2.27,0-.81-.15-2.48-2.03-3.03l-2.29-.67c-2.46-.73-2.75-2.52-2.75-3.96,0-.56.16-1.15.41-1.65.49-1,1.45-1.9,2.91-1.9,2.05,0,3.46,1.16,3.46,1.16v-.98h.57v3.34h-.36c-.99-2.42-2.31-2.91-3.6-2.91-1.45,0-2.41.83-2.41,2.22,0,1.88,1.4,2.55,2.33,2.82l1.97.56c2.25.65,2.89,2.13,2.89,3.79,0,2.21-1.32,4.11-3.57,4.11-1.27,0-2.33-.25-4.38-1.46v1.3h-.65v-4.43h.33ZM40.73,21.27h0v.81s5.14,0,5.14,0v-.8h-1.49v-11.81h3.72v1.9h.91v-2.87h-11.42v2.87h.9v-1.9h3.73l.02,11.8h-1.5ZM53.91,14.44h1.36c1.61,0,2.86-.27,2.86-2.98,0-1.41-1.06-2.2-2.75-2.2h-1.47v5.18h0ZM53.91,21.29h1.49v.79h-5.15v-.79h1.49v-12.02h-1.49v-.76h5.24c1.82,0,3.46-.02,4.35,1.83.17.35.27.73.27,1.14,0,1.59-.37,3.02-3.27,3.26v.08c3.27.55,3.37,2.43,3.48,3.51.1.92.08,3.2.83,3.2.37,0,.89-.51,1.05-.7l.29.33c-.74,1.06-1.47,1.1-2.05,1.1-.52,0-1.26-.08-1.76-.77-.41-.59-.46-1.53-.54-2.3-.15-1.49-.25-2.96-.93-3.57-.46-.41-1.14-.45-1.72-.45h-1.57v6.12h0ZM8.7,3.17h-.49l-1.42,3.84,4.89,14.28h-2.41v.8h7.45v-.8h-1.84L8.7,3.17h0ZM74.25,21.29h-2.41v.8h7.46v-.8h-1.84l-6.18-18.12h-.49l-1.42,3.84,4.89,14.28Z"/>
    <path class="cls-6" d="M66.93,15.52h7.24l-.19-.57h-6.91l2.08-5.51-.33-.96-4.75,12.81h-1.49v.8h4.61v-.8h-2.45l2.2-5.77h0ZM2.16,21.29h2.44v.8H0v-.8h1.49l4.75-12.81.33.96-2.07,5.51h6.91l.19.57h-7.24l-2.2,5.77Z"/>
  </g>
  <g>
    <path class="cls-1" d="M82.89,27.24c-.39-1.24,4.63-7.43,12.62-11.28-9.34-.21-15.24,3.54-14.86,4.78l2.24,6.5Z"/>
    <g>
      <path class="cls-6" d="M107.81,23.76c-.4.07-.66.46-.58.85.07.4.45.66.85.58.4-.08.66-.46.58-.85-.07-.4-.46-.66-.85-.58Z"/>
      <path class="cls-6" d="M110.23,23.31c-.4.08-.66.46-.59.85.08.4.46.66.85.58.4-.07.66-.46.58-.85-.07-.4-.46-.66-.85-.58Z"/>
      <path class="cls-6" d="M114.04,22.6c-.4.07-.66.46-.58.85.08.4.46.66.85.58.4-.07.66-.46.58-.85-.07-.4-.46-.66-.85-.59Z"/>
      <path class="cls-6" d="M116.18,20.64l-.15-.06-.25-1.35.09-.24-1.96-.62c-.22-.07-.45-.12-.68-.16l-1.33-.2.8,4.2-10.3,1.94c.02-.15.04-.31.08-.47l9.68-1.81-.83-4.43-13,2.44c-11.09,1.98-17.22,2.27-17.68.87l2.19,6.41c.54,1.64,9.62.99,24.21-2.02,0,0-.11-.34-.14-.46-.14-.57.28-1.1.83-1.2.56-.11,1.1.26,1.21.82l.37-.07c-.1-.56.28-1.1.84-1.2.56-.11,1.1.26,1.21.82l1.76-.33c-.1-.57.28-1.12.85-1.23.57-.11,1.12.27,1.23.83l1.35-.25-.38-2.23h0ZM114.16,20.35h0l-.14-.77,1.35-.23.21,1.18-1.41-.19Z"/>
    </g>
  </g>
  <g>
    <path class="cls-5" d="M80,18.83c-.33-1.05,3.82-5.97,10.61-9.24-7.94-.18-12.79,2.78-12.46,3.83l1.85,5.41Z"/>
    <g>
      <path class="cls-4" d="M106.39,14.19l-9.8,1.89.15-.39,9.58-1.85-.33-1.84-.96.19-.17-.92-.72.14-.17-.92-.64.12.17.92.17.92-2.72.53-.34-1.84-5.37,1.02h0c-10.74,2.03-16.63,2.54-17.07,1.27l1.84,5.39c.47,1.4,6.43.9,18.74-1.52l-.11-.45h0c-.08-.47.22-.92.67-1.01.46-.09.9.22.98.69,1.58-.3.6-.12,2.18-.42-.08-.47.22-.92.67-1.01.46-.09.9.23.98.7l.3-.06c-.08-.47.22-.92.67-1.01.45-.09.9.22.98.7l1.16-.22-.84-1h0ZM100.24,12.14h0l.17.96-2.15.41-.17-.96,2.15-.41Z"/>
      <path class="cls-4" d="M99.35,15.91c-.32.06-.53.37-.47.69.06.32.37.53.69.47.32-.06.53-.37.47-.69-.06-.32-.37-.53-.69-.47Z"/>
      <path class="cls-4" d="M103.19,15.2c-.32.06-.53.37-.47.69.06.32.37.53.69.47.32-.06.53-.37.47-.69-.06-.32-.37-.53-.69-.47Z"/>
      <path class="cls-4" d="M105.14,14.84c-.32.06-.53.37-.47.69.06.32.37.53.69.47.32-.06.53-.37.47-.69-.06-.32-.37-.53-.69-.47Z"/>
    </g>
  </g>
  <g>
    <path class="cls-7" d="M77.55,11.61c-.26-.82,3.13-4.73,8.44-7.29-6.2-.14-10.12,2.31-9.86,3.13l1.42,4.16Z"/>
    <path class="cls-6" d="M93.63,7.17l-.15.56-.58.12-.15-.69-.69.14-.13-.59-.69.14-.13-.59-.15.03-.12.02h0c-.1.02-.19.04-.29.06h0c-9.12,1.72-14.07,2.07-14.41,1.08l1.41,4.14c.36,1.06,4.83.86,14.44-.98h0c.13-.03,4.34-.77,4.34-.77l2.32-3.69-5.01,1.01h0ZM94.89,8.37h0c-.24.05-.47-.1-.52-.33-.05-.23.1-.46.34-.51.24-.05.47.1.52.33.05.23-.1.46-.34.51h0ZM96.32,8.08h0c-.24.05-.47-.1-.52-.33-.05-.23.1-.46.34-.51.24-.05.47.1.52.33.05.23-.11.46-.34.5Z"/>
  </g>
  <g>
    <path class="cls-2" d="M75.64,6.06c-.26-.73,2.82-3.64,7.43-5.79-.12,0-.23,0-.35,0-5.19-.03-8.39,2.01-8.16,2.68l1.07,3.11Z"/>
    <path class="cls-4" d="M92.87,2.04c-.13-.07-.45-.12-.51-.13-.19-.03-.46-.04-.79-.03-.42.02-.91.08-1.45.16l-.28-.31c.1-.06.15-.17.13-.29-.03-.14-.18-.24-.33-.2l-.21.04-.32-.35c.11-.06.17-.17.15-.3-.03-.15-.18-.24-.33-.21l-.22.05-.38-.42s-.11-.07-.17-.06l-.46.08c-.06.01-.1.05-.12.1-.02.05-.02.11,0,.15l.77,1.24c-8,1.3-13.45,2.14-13.78,1.39l1.05,3.07c.33.76,5.53.15,13.34-1.38l-.18,1.34s0,.04,0,.06c0,.03.03.07.05.09.04.04.1.05.15.04l.46-.08c.06-.01.11-.06.13-.12l.17-.54.22-.05c.15-.03.25-.18.22-.32-.03-.12-.13-.2-.25-.21l.15-.45.21-.04c.15-.03.25-.18.22-.32-.03-.12-.12-.2-.24-.21l.13-.4c.52-.14,1-.29,1.39-.44.31-.12.55-.24.72-.35.05-.03.32-.24.41-.37.05-.08.03-.19-.06-.24Z"/>
  </g>
</svg>