<?xml version="1.0" encoding="UTF-8"?>
<!-- Generator: Adobe Illustrator 28.1.0, SVG Export Plug-In . SVG Version: 6.00 Build 0)  -->
<svg xmlns="http://www.w3.org/2000/svg" xmlns:xlink="http://www.w3.org/1999/xlink" version="1.1" id="Layer_1" x="0px" y="0px" viewBox="0 0 155 53" style="enable-background:new 0 0 155 53;" xml:space="preserve">
<style type="text/css">
	.st0{fill:#FFFFFF;}
</style>
<polygon class="st0" points="0,24.1 0,52.4 7.9,52.4 7.9,24.1 "></polygon>
<path class="st0" d="M22.2,51.4l0-4.7c5.2,1.6,9.7,2.4,13.5,2.4c2.3,0,4.2-0.4,5.7-1.2c1.5-0.8,2.2-1.8,2.2-3c0-1.7-2.1-3.2-6.3-4.3  l-4.6-1.3c-6.8-1.8-10.2-4.5-10.2-7.9c0-2.5,1.3-4.4,4-5.8c2.7-1.4,6.4-2.1,11-2.2c2.4,0,5.4,0.2,9,0.7l1.6,0.2l0,4.2  c-4.4-0.8-7.9-1.2-10.5-1.2c-2.3,0-4.1,0.3-5.5,1c-1.4,0.7-2.1,1.5-2.1,2.6c0,1.5,1.9,2.8,5.8,3.9l3.8,1.1c4.3,1.2,7.3,2.4,9.1,3.7  c1.8,1.3,2.7,2.9,2.7,4.9c0,2.5-1.5,4.5-4.5,6.1c-3,1.6-6.9,2.4-11.6,2.4C31.7,52.9,27.4,52.4,22.2,51.4"></path>
<path class="st0" d="M95.4,51.4c-5.1,0.9-9.5,1.4-13.2,1.4c-5.9,0-10.7-1.4-14.6-4.2c-3.9-2.8-5.8-6.4-5.8-10.7  c0-4.6,1.9-8.2,5.7-10.8c3.8-2.6,9.2-3.9,16-3.9c3.4,0,7.2,0.3,11.4,0.9l0,4.4c-4.4-0.9-8.1-1.4-10.8-1.4c-4,0-7.3,1-9.7,3  c-2.4,2-3.6,4.6-3.6,7.9c0,3.2,1.3,5.8,3.8,7.8c2.5,2,5.8,2.9,9.8,2.9c3.6,0,7.3-0.6,11.1-1.8L95.4,51.4z"></path>
<path class="st0" d="M116.3,46.1c-2.1-1.9-3.2-4.6-3.2-8.1c0-3.5,1.1-6.1,3.2-8c2.1-1.9,5.2-2.8,9.1-2.9c3.9,0,6.9,0.9,9.1,2.8  c2.2,1.9,3.2,4.6,3.2,8c0,3.5-1.1,6.2-3.2,8.1c-2.1,1.9-5.2,2.8-9.1,2.9C121.5,48.9,118.4,48,116.3,46.1 M140.5,48.8  c3.7-2.6,5.6-6.3,5.6-10.8c0-4.5-1.9-8.1-5.6-10.8c-3.7-2.6-8.8-4-15.2-4c-6.4,0-11.4,1.3-15.1,4c-3.7,2.7-5.6,6.3-5.6,10.8  c0,4.6,1.9,8.2,5.6,10.8c3.7,2.6,8.8,3.9,15.2,3.9C131.8,52.8,136.8,51.4,140.5,48.8"></path>
<path class="st0" d="M86.1,1.3C39.8-3.6,4.2,7.8,3.3,8.5c-1.2,0.6-2,1.4-2.4,2.2C1.4,10.1,2,9.6,2.8,9.3C2.9,9.3,3,9.2,3.1,9.1  c0,0,0,0,0,0.1C3.4,9.1,3.9,9,4.3,9c2.4,0,4.3,2,4.3,4.4c0,1-0.3,1.9-0.9,2.7C93.2-11.4,155,23,155,22.6  C155,22.2,122.7,5.1,86.1,1.3"></path>
<path class="st0" d="M150.1,29.3h0.2c0.3,0,0.5-0.1,0.5-0.3c0-0.2-0.1-0.3-0.5-0.3c-0.1,0-0.2,0-0.3,0V29.3z M150.1,30.5h-0.5v-2.1  c0.2,0,0.5-0.1,0.8-0.1c0.4,0,0.6,0.1,0.7,0.2c0.1,0.1,0.2,0.3,0.2,0.5c0,0.2-0.2,0.4-0.4,0.5v0c0.2,0.1,0.3,0.2,0.4,0.5  c0.1,0.3,0.1,0.5,0.2,0.5h-0.5c-0.1-0.1-0.1-0.3-0.2-0.5c0-0.2-0.2-0.3-0.4-0.3h-0.2V30.5z M148.8,29.4c0,0.9,0.7,1.7,1.7,1.7  c0.9,0,1.6-0.7,1.6-1.7c0-0.9-0.7-1.7-1.6-1.7C149.5,27.7,148.8,28.4,148.8,29.4 M152.6,29.4c0,1.2-0.9,2.1-2.2,2.1  c-1.2,0-2.2-0.9-2.2-2.1c0-1.2,1-2.1,2.2-2.1C151.7,27.3,152.6,28.2,152.6,29.4"></path>
</svg>
