<svg width="182" height="51" viewBox="0 0 182 51" fill="none" xmlns="http://www.w3.org/2000/svg">
<g clip-path="url(#clip0_10_7)">
<path d="M71.9034 23.6843V14.7138H73.3615V25.9451H71.7448L65.8565 16.8684V25.8389H64.3983V14.7138H66.0513L71.9034 23.6843Z" fill="#CF2026"/>
<path d="M83.1012 25.8389H76.1443V14.7138H83.1012V16.1111H77.6331V19.5596H82.1856V20.9568H77.6331V24.4277H83.1012V25.8389Z" fill="#CF2026"/>
<path d="M91.8529 16.5834L89.0702 25.8389H87.612L84.4814 14.7138H86.0481L88.4274 23.7737L91.0126 14.7138H92.7351L95.3842 23.7737L97.7245 14.7138H99.1827L96.0716 25.8389H94.5773L91.8529 16.5834Z" fill="#CF2026"/>
<path d="M108.076 24.7518C108.689 24.7765 109.292 24.5923 109.788 24.2293C110 24.0768 110.173 23.875 110.292 23.6409C110.41 23.4069 110.47 23.1475 110.467 22.8851C110.48 22.6446 110.433 22.4046 110.328 22.1879C110.223 21.9712 110.065 21.785 109.868 21.6471C109.235 21.2715 108.547 20.998 107.829 20.8367C107.423 20.7272 107.025 20.5938 106.635 20.4371C106.276 20.2864 105.934 20.0991 105.614 19.8782C105.268 19.6409 104.992 19.3147 104.815 18.9336C104.624 18.5119 104.529 18.0527 104.537 17.5894C104.523 17.1582 104.607 16.7295 104.784 16.3361C104.96 15.9428 105.224 15.5953 105.555 15.3202C106.308 14.7205 107.25 14.4138 108.21 14.4567C109.433 14.4447 110.635 14.7851 111.672 15.4376L111.146 16.7538C110.289 16.1545 109.271 15.8318 108.227 15.8289C107.485 15.8289 106.928 15.9798 106.557 16.2816C106.378 16.4248 106.234 16.608 106.138 16.8165C106.041 17.0251 105.994 17.2533 106 17.4832C105.989 17.7169 106.039 17.9494 106.145 18.1574C106.252 18.3655 106.411 18.5416 106.607 18.6681C107.255 19.0325 107.95 19.3053 108.672 19.4785C109.528 19.681 110.33 20.0692 111.02 20.6159C111.61 21.1161 111.908 21.8399 111.908 22.7873C111.92 23.2419 111.829 23.6932 111.643 24.1079C111.457 24.5225 111.181 24.8897 110.834 25.1822C110.053 25.8277 109.062 26.1611 108.051 26.1184C106.751 26.1347 105.475 25.7695 104.378 25.0676L104.871 23.6955C105.81 24.3612 106.927 24.7291 108.076 24.7518Z" fill="#CF2026"/>
<path d="M115.581 25.8389H114.104V14.7138H115.581V25.8389Z" fill="#CF2026"/>
<path d="M125.212 25.8389H118.409V14.7138H119.903V24.4165H125.212V25.8389Z" fill="#CF2026"/>
<path d="M128.585 20.0179H128.605L133.26 14.7082H135.141L130.063 20.2079L135.194 25.8333H133.28L128.605 20.546H128.585V25.8333H127.091V14.7138H128.585V20.0179Z" fill="#CF2026"/>
<path d="M142.226 21.5493V25.8389H140.743V14.7138H144.029C145.328 14.7138 146.327 15.0045 147.026 15.5857C147.372 15.876 147.646 16.2424 147.827 16.6562C148.009 17.0701 148.093 17.5205 148.073 17.9723C148.073 19.5633 147.246 20.6308 145.593 21.1748L148.562 25.8389H146.787L144.116 21.4235L142.226 21.5493ZM142.226 20.2135L144.035 20.1604C144.69 20.1691 145.331 19.9663 145.863 19.5819C146.095 19.4012 146.281 19.1669 146.403 18.8988C146.526 18.6307 146.582 18.3368 146.567 18.0421C146.582 17.7584 146.524 17.4757 146.397 17.2215C146.271 16.9673 146.081 16.7503 145.847 16.5918C145.242 16.2328 144.544 16.0626 143.843 16.1027H142.226V20.2135Z" fill="#CF2026"/>
<path d="M160.681 20.233C160.727 21.7805 160.169 23.2846 159.126 24.4249C158.623 24.9734 158.009 25.4071 157.325 25.6964C156.641 25.9857 155.902 26.1239 155.16 26.1016C153.533 26.1016 152.207 25.5706 151.181 24.5087C150.155 23.4468 149.644 22.0448 149.648 20.3029C149.597 18.7545 150.156 17.2485 151.203 16.1111C151.706 15.5633 152.32 15.1302 153.003 14.8409C153.687 14.5517 154.424 14.4131 155.166 14.4344C156.797 14.4344 158.124 14.9625 159.148 16.0189C160.172 17.0752 160.683 18.4799 160.681 20.233ZM159.187 20.3029C159.187 18.9392 158.816 17.8474 158.074 17.0277C157.702 16.6222 157.248 16.3023 156.742 16.09C156.235 15.8778 155.689 15.7782 155.141 15.7981C154.604 15.7804 154.069 15.8804 153.574 16.0913C153.079 16.3022 152.635 16.6189 152.275 17.0193C151.533 17.8316 151.162 18.9028 151.162 20.233C151.162 21.5968 151.533 22.6913 152.275 23.5166C152.644 23.9242 153.097 24.246 153.602 24.4593C154.108 24.6727 154.654 24.7725 155.202 24.7518C155.741 24.769 156.278 24.6681 156.774 24.4563C157.27 24.2444 157.715 23.9267 158.077 23.525C158.817 22.7053 159.187 21.6313 159.187 20.3029Z" fill="#CF2026"/>
<path d="M167.324 14.7138L171.401 25.8389H169.873L168.849 22.913H164.071L163.036 25.8333H161.488L165.618 14.7082L167.324 14.7138ZM168.342 21.5493L166.461 16.2788L164.563 21.5493H168.342Z" fill="#CF2026"/>
<path d="M182 20.1967C182 21.9405 181.484 23.3173 180.453 24.3271C179.421 25.3368 177.974 25.8408 176.112 25.8389H172.878V14.7138H176.181C177.988 14.7138 179.409 15.2094 180.444 16.2005C181.48 17.1917 181.998 18.5237 182 20.1967ZM180.506 20.3029C180.506 18.9504 180.124 17.9145 179.362 17.1954C178.599 16.4762 177.516 16.1176 176.112 16.1195H174.372V24.4332H176.181C177.517 24.4332 178.572 24.0802 179.345 23.3741C180.119 22.668 180.506 21.6443 180.506 20.3029Z" fill="#CF2026"/>
<path d="M68.3081 35.1531V29.1644H68.7255V35.8182H68.2468L64.2814 29.7764V35.7679H63.864V29.1644H64.3733L68.3081 35.1531Z" fill="#352D78"/>
<path d="M74.5136 35.7679H70.7875V29.1644H74.5136V29.564H71.2244V32.2636H73.971V32.6548H71.2244V35.3543H74.5136V35.7679Z" fill="#352D78"/>
<path d="M80.7164 29.5752H78.4095V35.7679H77.9726V29.5752H75.6713V29.1644H80.708L80.7164 29.5752Z" fill="#352D78"/>
<path d="M86.1316 29.6395L84.2532 35.7679H83.8469L81.9964 29.1784H82.4416L84.0779 35.0833L85.8561 29.1784H86.4126L88.2242 35.0833L89.763 29.1784H90.2222L88.4273 35.7679H88.021L86.1316 29.6395Z" fill="#352D78"/>
<path d="M97.7078 32.4424C97.7462 33.3496 97.4284 34.2357 96.8229 34.91C96.5367 35.2203 96.1878 35.4656 95.7996 35.6295C95.4113 35.7934 94.9926 35.872 94.5716 35.8601C94.1565 35.866 93.7449 35.7828 93.3643 35.6161C92.9837 35.4493 92.643 35.2029 92.3649 34.8932C91.7557 34.2356 91.4306 33.3625 91.4605 32.4648C91.4216 31.5592 91.7395 30.6746 92.3455 30.0028C92.6318 29.6938 92.9805 29.4498 93.3682 29.2869C93.7559 29.124 94.1738 29.046 94.5939 29.0582C95.0095 29.0514 95.4218 29.1336 95.8033 29.2994C96.1847 29.4651 96.5266 29.7106 96.8062 30.0195C97.4141 30.6756 97.7383 31.5468 97.7078 32.4424ZM97.2598 32.4648C97.2871 31.6714 97.0113 30.8976 96.489 30.3018C96.2488 30.0279 95.9521 29.8098 95.6196 29.6627C95.2871 29.5155 94.9266 29.4427 94.5633 29.4495C94.2038 29.4402 93.8467 29.5106 93.5172 29.6555C93.1878 29.8003 92.8942 30.0162 92.6571 30.2878C92.1686 30.9037 91.9044 31.6688 91.9084 32.4561C91.9125 33.2435 92.1845 34.0058 92.6794 34.6166C92.9196 34.8904 93.2162 35.1085 93.5487 35.2557C93.8813 35.4029 94.2417 35.4756 94.6051 35.4689C94.9642 35.4787 95.3211 35.4086 95.6502 35.2637C95.9792 35.1187 96.2723 34.9025 96.5084 34.6305C97.0237 34.0307 97.2923 33.2563 97.2598 32.4648Z" fill="#352D78"/>
<path d="M99.8616 33.0125V35.7679H99.4247V29.1644H100.964C101.748 29.1644 102.334 29.3293 102.72 29.6591C102.912 29.8295 103.064 30.0414 103.164 30.279C103.263 30.5165 103.309 30.7737 103.296 31.0312C103.302 31.2445 103.266 31.457 103.19 31.6562C103.113 31.8554 102.998 32.0372 102.85 32.1909C102.544 32.5025 102.159 32.7247 101.737 32.8337L103.588 35.7679H103.098L101.339 32.9175L99.8616 33.0125ZM99.8616 32.6129L101.122 32.571C101.566 32.5674 101.995 32.4138 102.341 32.135C102.507 32.007 102.641 31.8411 102.731 31.6512C102.821 31.4613 102.865 31.2526 102.859 31.0423C102.87 30.8337 102.832 30.6254 102.746 30.4348C102.661 30.2442 102.532 30.0769 102.369 29.9469C101.94 29.6658 101.433 29.5324 100.922 29.5668H99.87L99.8616 32.6129Z" fill="#352D78"/>
<path d="M105.555 32.3474L108.822 29.1644H109.406L105.992 32.4424L109.479 35.7679H108.897L105.558 32.5933V35.7679H105.124V29.1644H105.561L105.555 32.3474Z" fill="#352D78"/>
<path d="M1.17151 31.9813L3.09717 37.3133L8.03098 34.7787L6.43925 29.7177L1.17151 31.9813Z" fill="#CF2026"/>
<path d="M11.2034 28.2841L12.8619 32.3362L16.6102 31.0368L14.935 27.1188L11.2034 28.2841Z" fill="#CF2026"/>
<path d="M18.4969 26.3643L19.7547 29.7038L23.2777 28.7955L22.2453 25.4113L18.4969 26.3643Z" fill="#CF2026"/>
<path d="M25.3063 25.0061L26.3275 27.7839L29.3413 27.2026L28.4591 24.464L25.3063 25.0061Z" fill="#CF2026"/>
<path d="M32.0934 24.1203L32.9338 26.4593L35.6053 25.9647L34.8595 23.9386L32.0934 24.1203Z" fill="#CF2026"/>
<path d="M37.4029 23.7206L37.8732 25.7858L40.4611 25.3247L39.9964 23.5837L37.4029 23.7206Z" fill="#CF2026"/>
<path d="M42.5927 23.7821L44.9414 23.7402L45.42 24.9335L43.0713 25.1403L42.5927 23.7821Z" fill="#CF2026"/>
<path d="M46.7697 23.9694L49.0125 24.1929L49.3632 25.0229L47.2678 25.0313L46.7697 23.9694Z" fill="#CF2026"/>
<path d="M18.5164 46.3872C18.5164 46.3872 22.8492 37.3105 33.073 38.283C43.2968 39.2555 43.9034 32.3837 43.9034 32.3837C43.9034 32.3837 42.7903 42.201 34.5506 41.6588C26.3109 41.1167 20.9847 43.8721 18.5164 46.3872Z" fill="#352D78"/>
<path d="M46.4079 31.1234C46.1479 32.2044 45.8084 33.2646 45.3922 34.2952C44.1845 37.2631 42.3528 39.9341 40.0224 42.1255C37.692 44.317 34.9178 45.9772 31.8896 46.9927C28.8613 48.0081 25.6504 48.3549 22.4764 48.0092C19.3024 47.6636 16.2402 46.6337 13.4991 44.9899C33.6378 29.2986 58.3013 27.5045 58.894 27.4625C37.734 23.8855 5.00059 40.9686 5.09242 41.0776C8.84587 46.0136 14.2897 49.3754 20.3697 50.512C25.1579 51.3992 30.1002 50.856 34.584 48.9498C38.3769 47.3362 41.7126 44.8041 44.2931 41.5798C46.8735 38.3554 48.6183 34.5392 49.3715 30.4723L49.4466 30.0698C48.2528 30.422 46.9783 30.9026 46.4079 31.1234Z" fill="#352D78"/>
<path d="M33.2121 5.3549C36.6952 6.77446 39.7605 9.06245 42.1181 12.0027C44.4757 14.9429 46.0479 18.4383 46.6861 22.1585C47.656 22.2894 48.6177 22.476 49.5663 22.7174C49.4828 22.0691 49.3733 21.4254 49.2379 20.7864C47.972 14.6975 44.491 9.30127 39.4751 5.65201C34.4591 2.00276 28.2685 0.362635 22.1127 1.05207C15.9569 1.74151 10.2782 4.71097 6.18609 9.38032C2.09394 14.0497 -0.117692 20.0834 -0.0167078 26.3028C-0.0167078 26.7863 0.0111206 27.2697 0.0472963 27.7504C0.64837 27.5492 1.56668 27.253 2.76604 26.898V26.8701C20.1554 20.982 35.5607 21.9908 35.5607 21.9908C26.0298 19.0789 13.6382 20.1185 3.08606 22.0747C3.66296 18.8149 4.95761 15.7257 6.87544 13.0328C8.79327 10.3398 11.2859 8.11097 14.1712 6.50915C17.0565 4.90732 20.2616 3.97293 23.5525 3.7742C26.8434 3.57547 30.1369 4.11742 33.1926 5.36048L33.2121 5.3549Z" fill="#CF2026"/>
</g>
<defs>
<clipPath id="clip0_10_7">
<rect width="182" height="50" fill="white" transform="translate(0 0.942307)"/>
</clipPath>
</defs>
</svg>
